<svg id="Livello_3" data-name="Livello 3" xmlns="http://www.w3.org/2000/svg" viewBox="0 0 346.41 186.06"><defs><style>.cls-1{font-size:39.87px;font-family:TimesNewRomanPSMT, Times New Roman;}</style></defs><title>Logo_paislay</title><path d="M184.42,166.21c-.23-13.74-.26-27.7-.26-41.72v-8.64c0-14.55,0-29.15.28-43.59l16.19-1.35V66.42H159.34c-24.77,0-37.09,12.22-37.09,31.16,0,18.24,13.22,32.19,43,32.19h10.22c0,12.5,0,25.26-.28,38.29l-17.14,1.37v4.49h24c.06-.14.14-.29.21-.43a9.62,9.62,0,0,1,.71-1.44,8.66,8.66,0,0,1,1.07-1.61A11.59,11.59,0,0,1,184.42,166.21Zm-8.94-41.32H165.42c-24.62,0-34.17-11.31-34.17-27.31,0-16.88,9-26.09,29.8-26.09h14.14c.27,14.58.29,29.44.29,44.36Z" transform="translate(-1.8 -66.42)"/><path d="M204.08,196.52c-19.37,0-28.6-10-28.6-21.32,0-9.7,5.49-16.06,20.4-21.58l6.77-2.51c10.75-4,15.58-7.55,15.58-15.39S212.47,122,200.6,122a29.15,29.15,0,0,0-17.87,6.15V125l-1.68-1.32.51,14.87H179.1l-.45-15c7.14-4.34,13-6.45,21.6-6.45,16.47,0,25.63,9,25.63,20.47,0,10.66-7.56,16.59-19,20.8l-7.43,2.71c-12,4.33-16.25,8.31-16.25,15.74,0,8.56,6.78,14.83,20.57,14.83,9.3,0,15-2.14,20.47-5.79v3.82l-5.17,2.15,3.17-17.39h5.52l-.54,16.62C219.49,194.64,212.92,196.52,204.08,196.52Z" transform="translate(-1.8 -66.42)"/><text class="cls-1" transform="translate(0 173.83)">La moda che fa per te</text></svg>