<?xml version="1.0" encoding="utf-8"?>
<!-- Generator: Adobe Illustrator 24.2.1, SVG Export Plug-In . SVG Version: 6.00 Build 0)  -->
<svg version="1.1" id="icon" xmlns="http://www.w3.org/2000/svg" xmlns:xlink="http://www.w3.org/1999/xlink" x="0px" y="0px"
	 viewBox="0 0 64 78.2" style="enable-background:new 0 0 64 78.2;" xml:space="preserve">
<style type="text/css">
	.st0{fill:#FFFFFF;}
</style>
<rect class="st0" width="64" height="78.2"/>
<g>
	<circle cx="11.2" cy="11.2" r="2.2"/>
	<path d="M11.2,24.7C10,24.7,9,25.8,9,27v27c0,1.2,1,2.2,2.2,2.2s2.2-1,2.2-2.2V27C13.5,25.8,12.5,24.7,11.2,24.7z"/>
	<path d="M63.8,61.4c-0.3-1.7-0.7-3.3-1.1-4.8c-0.4-1.5-1.4-4.5-2.4-7c-0.5-1.5-2.4-6.7-5-8.3c-1.2-0.7-2.7-1.3-3.9-1.5
		c-1.3-0.2-2-0.2-2.3-0.2l-0.6,0l-1.3,0.8H36V0H0v63v0h17c-0.1,1.6,0,3.9,1.1,5.7c0.7,1,1.4,1.8,2.3,2.3c0.5,0.3,1.8,1,2.7,1
		c0,0,0.1,0,0.1,0c0.8,0,1.7-0.5,2.7-1.3c0.8-0.7,1.6-1.6,2.3-2.5l0.8-0.9c1.2-1.4,2.2-1.9,2.5-2h17.7c0.4,0.2,1.4,0.6,2.5,2
		l0.8,0.9c0.7,0.9,1.5,1.8,2.3,2.5c1,0.9,1.9,1.3,2.7,1.3c0.9,0.1,2.4-0.6,2.9-0.9c0.9-0.6,1.6-1.3,2.3-2.3
		C64.7,65.8,63.8,61.7,63.8,61.4z M18.3,56.6c-0.2,0.6-0.3,1.3-0.4,1.9H4.5v-54h27v35.2c-0.4,0-1,0-1.9,0.2
		c-1.2,0.2-2.7,0.7-3.9,1.5c-2.6,1.6-4.5,6.7-5,8.2C19.8,52,18.7,55.1,18.3,56.6z M59.1,66.3c-0.4,0.6-0.6,0.8-0.9,0.9
		c-0.1,0-0.1,0.1-0.2,0.1c0,0-0.1-0.1-0.1-0.1c-0.6-0.5-1.2-1.2-1.8-1.9l-0.8-1c-2.5-2.9-4.7-3.4-5.2-3.5l-0.2,0l-19,0
		c-0.4,0.1-2.7,0.7-5.2,3.5l-0.8,1c-0.6,0.7-1.2,1.4-1.8,1.9c-0.1,0-0.1,0.1-0.1,0.1c-0.1,0-0.1-0.1-0.2-0.1
		c-0.2-0.1-0.5-0.4-0.9-0.9c-0.7-1-0.5-3.2-0.3-4.2c0.3-1.6,0.6-3,1-4.4c0.4-1.4,1.3-4.3,2.3-6.7c0.9-2.6,2.4-5.4,3.1-5.9
		c0.7-0.4,1.6-0.8,2.2-0.9c0.4-0.1,0.7-0.1,1-0.1l1.3,0.8h15.9l1.3-0.8c0.2,0,0.6,0,1,0.1c0.6,0.1,1.5,0.4,2.2,0.9
		c0.7,0.5,2.2,3.3,3.1,6c0.9,2.4,1.9,5.3,2.2,6.6c0.4,1.4,0.7,2.8,1,4.5C59.5,63.1,59.7,65.3,59.1,66.3z"/>
	<circle cx="40.5" cy="49.5" r="2.2"/>
</g>
</svg>
