<?xml version="1.0" encoding="utf-8"?>
<!-- Generator: Adobe Illustrator 24.2.0, SVG Export Plug-In . SVG Version: 6.00 Build 0)  -->
<svg version="1.1" id="Layer_1" xmlns="http://www.w3.org/2000/svg" xmlns:xlink="http://www.w3.org/1999/xlink" x="0px" y="0px"
	 viewBox="0 0 150 48" style="enable-background:new 0 0 150 48;" xml:space="preserve">
<style type="text/css">
	.st0{fill:#FFFFFF;}
</style>
<g>
	<g>
		<path class="st0" d="M24.1,0.6C12.4,0.6,3,10,3,21.6c0,11.6,9.4,21.1,21.1,21.1c11.6,0,21.1-9.4,21.1-21.1
			C45.2,10,35.7,0.6,24.1,0.6z M15.7,13.3h12.1L26,16.3H13.8L15.7,13.3z M35.9,28.1l-1.8-2.9h-5.4l1.8-2.9h1.7l-2.1-3.3l-5.7,9.2
			H9.2l3.7-5.9h-2.7l1.8-2.9h11.8L22,22.2h-5.6l-1.8,2.9h8.3l7.4-11.8l9.2,14.7H35.9z"/>
	</g>
	<path class="st0" d="M147,14.9h-6l-6.4,13.3L128,14.9h-6.4l9.7,19.7l-6.5,12.8h6.2L147,14.9z M108.3,32.6c-3.5,0-6.3-2.7-6.3-6.5
		c0-3.8,2.8-6.5,6.3-6.5c3.5,0,6.3,2.7,6.3,6.5C114.5,30,111.8,32.6,108.3,32.6 M107.3,37.8c2.8,0,5.3-1,7.2-2.8v2.5h5.7V14.9h-5.7
		v2.5c-1.8-1.8-4.3-2.8-7-2.8c-5.9,0-11.2,4.9-11.2,11.6C96.3,32.9,101.5,37.8,107.3,37.8 M93.3,4l-5.7,1.8v31.6h5.7V4z M73.4,20.6
		h-7.2v-9.2h7.2c3,0,5.1,1.9,5.1,4.6S76.4,20.6,73.4,20.6 M59.9,5.8v31.6h6.2V25.9h7.7c6.2,0,10.8-4.3,10.8-10.1
		c0-5.8-4.4-10-10.6-10H59.9z"/>
</g>
</svg>
