<?xml version="1.0" encoding="utf-8"?>
<!-- Generator: Adobe Illustrator 24.2.0, SVG Export Plug-In . SVG Version: 6.00 Build 0)  -->
<svg version="1.1" id="Layer_1" xmlns="http://www.w3.org/2000/svg" xmlns:xlink="http://www.w3.org/1999/xlink" x="0px" y="0px"
	 viewBox="0 0 60 60" style="enable-background:new 0 0 60 60;" xml:space="preserve">
<style type="text/css">
	.st0{fill:#FFFFFF;}
</style>
<path class="st0" d="M41.2,36.6l7,22.5L30,45.1L11.9,59l7-22.5L1,22.8h22.2L30,1l6.8,21.8H59L41.2,36.6z M41.3,49.2
	c-0.7-2.3-1.5-4.7-2.1-7c-0.7-2.3-1.5-4.6-2.2-7c2-1.5,3.8-2.9,5.7-4.3c1.9-1.5,3.8-3,5.7-4.4H34.2l-4.1-13.2L26,26.4H11.7
	c2,1.5,3.8,3,5.7,4.4c1.9,1.5,3.8,2.9,5.7,4.3c-0.8,2.3-1.5,4.7-2.2,7c-0.7,2.3-1.5,4.6-2.1,7L30,40.5L41.3,49.2z"/>
</svg>
