<?xml version="1.0" encoding="utf-8"?>
<!-- Generator: Adobe Illustrator 25.0.0, SVG Export Plug-In . SVG Version: 6.00 Build 0)  -->
<svg version="1.1" id="Layer_1" xmlns="http://www.w3.org/2000/svg" xmlns:xlink="http://www.w3.org/1999/xlink" x="0px" y="0px"
	 viewBox="0 0 60 60" style="enable-background:new 0 0 60 60;" xml:space="preserve">
<style type="text/css">
	.st0{fill:#FFFFFF;}
</style>
<g>
	<path class="st0" d="M30,0.5C13.7,0.5,0.5,13.7,0.5,30S13.7,59.5,30,59.5S59.5,46.4,59.5,30C59.4,13.7,46.3,0.5,30,0.5z M18.2,18.4
		h17l-2.5,4.1h-17L18.2,18.4z M46.5,39L44,34.9h-7.5l2.5-4.1h2.4l-2.9-4.6L30.6,39H9.3l5.2-8.2h-3.7l2.5-4.1h16.5l-2.5,4.1h-7.8
		l-2.5,4.1h11.7l10.2-16.5L51.7,39H46.5z"/>
</g>
</svg>
