<?xml version="1.0" encoding="utf-8"?>
<!-- Generator: Adobe Illustrator 24.2.0, SVG Export Plug-In . SVG Version: 6.00 Build 0)  -->
<svg version="1.1" id="Layer_1" xmlns="http://www.w3.org/2000/svg" xmlns:xlink="http://www.w3.org/1999/xlink" x="0px" y="0px"
	 viewBox="0 0 60 60" style="enable-background:new 0 0 60 60;" xml:space="preserve">
<style type="text/css">
	.st0{fill:#FFFFFF;}
</style>
<path class="st0" d="M28.2,22.8c-1.5,0-2.9,0.3-4.2,0.9c-1.3,0.6-2.5,1.4-3.5,2.3c-1,1-1.8,2.1-2.4,3.5c-0.6,1.4-0.9,2.7-0.9,4.2
	c0,1.5,0.3,2.9,0.9,4.2s1.4,2.5,2.3,3.5c1,1,2.1,1.8,3.5,2.4c1.4,0.6,2.7,0.9,4.3,0.9c1.5,0,2.9-0.3,4.2-0.9
	c1.3-0.6,2.5-1.4,3.5-2.3c1-1,1.8-2.1,2.4-3.5c0.6-1.3,0.9-2.7,0.9-4.3c0-1.2-0.2-2.4-0.6-3.6h3.8c0.2,0.6,0.3,1.2,0.3,1.8
	c0.1,0.6,0.1,1.2,0.1,1.8c0,2-0.3,3.8-1.1,5.6c-0.8,1.8-1.8,3.3-3.2,4.6c-1.3,1.3-2.9,2.3-4.6,3.2c-1.8,0.8-3.7,1.2-5.6,1.2
	s-3.8-0.3-5.6-1.1c-1.8-0.8-3.3-1.8-4.6-3.2c-1.3-1.3-2.3-2.9-3.2-4.6c-0.8-1.8-1.2-3.7-1.1-5.6c0-2,0.3-3.8,1.1-5.6
	s1.8-3.3,3.1-4.6c1.3-1.3,2.8-2.3,4.6-3.2c1.8-0.8,3.7-1.2,5.6-1.2c0.6,0,1.2,0,1.8,0.1c0.6,0.1,1.2,0.2,1.8,0.3v3.8
	C30.6,23.1,29.4,22.8,28.2,22.8z M52.8,27.3c0.6,2.1,0.9,4.3,0.9,6.5c0,2.3-0.3,4.5-0.9,6.7c-0.6,2.1-1.5,4.2-2.6,6.1
	c-1.1,1.9-2.4,3.6-4,5.1c-1.5,1.5-3.2,2.9-5.1,3.9c-1.9,1.1-3.8,2-6.1,2.6c-2.2,0.6-4.4,0.9-6.7,0.9s-4.5-0.3-6.7-0.9
	c-2.2-0.6-4.2-1.4-6.1-2.6s-3.6-2.4-5.1-4c-1.5-1.5-2.9-3.2-3.9-5.1c-1.1-1.9-2-3.8-2.6-6.1c-0.6-2.2-0.9-4.4-0.9-6.7
	s0.3-4.5,0.9-6.7s1.5-4.2,2.6-6.1c1.1-1.9,2.4-3.6,4-5.1s3.2-2.9,5.1-3.9s3.8-2,6.1-2.6c2.2-0.6,4.4-0.9,6.7-0.9
	c2.2,0,4.4,0.3,6.5,0.9l-2.9,2.9v0.3c-0.6-0.1-1.2-0.2-1.8-0.3C29.5,12,28.9,12,28.3,12c-2,0-3.9,0.3-5.8,0.8
	c-1.9,0.5-3.6,1.3-5.2,2.2s-3.1,2.1-4.4,3.4c-1.4,1.3-2.5,2.7-3.4,4.4c-0.9,1.6-1.6,3.3-2.2,5.2c-0.6,1.9-0.8,3.8-0.8,5.8
	c0,2,0.3,3.9,0.8,5.8s1.3,3.6,2.2,5.2c0.9,1.6,2.1,3.1,3.4,4.4c1.3,1.4,2.7,2.5,4.4,3.4c1.6,0.9,3.3,1.6,5.2,2.2
	c1.9,0.5,3.8,0.8,5.8,0.8c2,0,3.9-0.3,5.8-0.8c1.9-0.5,3.6-1.3,5.2-2.2c1.6-0.9,3.1-2.1,4.4-3.4c1.4-1.3,2.5-2.7,3.4-4.3
	c0.9-1.6,1.6-3.3,2.2-5.2c0.5-1.9,0.8-3.8,0.8-5.8c0-0.6,0-1.2-0.1-1.8c-0.1-0.6-0.2-1.2-0.3-1.8H50L52.8,27.3z M35.5,24v-8.1
	L46.4,4.9v10.7h10.7L46.2,26.5h-8.1l-6.4,6.3c0.1,0.3,0.1,0.6,0.1,0.9c0,0.5-0.1,1-0.3,1.5s-0.4,0.9-0.8,1.1
	c-0.3,0.3-0.7,0.6-1.2,0.8c-0.4,0.2-0.9,0.3-1.5,0.3c-0.5,0-1-0.1-1.5-0.3c-0.4-0.2-0.9-0.4-1.1-0.8c-0.3-0.3-0.6-0.7-0.8-1.2
	c-0.2-0.5-0.3-0.9-0.3-1.5c0-0.5,0.1-1,0.3-1.5c0.2-0.4,0.4-0.9,0.8-1.1c0.3-0.3,0.7-0.6,1.2-0.8c0.5-0.2,0.9-0.3,1.4-0.3
	c0.3,0,0.7,0,0.9,0.1L35.5,24z M39.1,22.8h5.5l3.7-3.6h-5.5v-5.5l-3.6,3.6L39.1,22.8L39.1,22.8z"/>
</svg>
