<?xml version="1.0" encoding="utf-8"?>
<!-- Generator: Adobe Illustrator 24.2.0, SVG Export Plug-In . SVG Version: 6.00 Build 0)  -->
<svg version="1.1" id="Layer_1" xmlns="http://www.w3.org/2000/svg" xmlns:xlink="http://www.w3.org/1999/xlink" x="0px" y="0px"
	 viewBox="0 0 60 60" style="enable-background:new 0 0 60 60;" xml:space="preserve">
<style type="text/css">
	.st0{fill:#FFFFFF;}
</style>
<path class="st0" d="M59,31.7c0,0.8-0.2,1.5-0.4,2.1c-0.3,0.7-0.7,1.2-1.2,1.7s-1.1,0.9-1.7,1.2c-0.7,0.3-1.4,0.4-2.1,0.4h-7.3
	c-0.5,0-0.9-0.2-1.3-0.5l-4.2-4.1l-2.9,2.9l6,6c0.3,0.3,0.5,0.8,0.5,1.3v10.9c0,0.8-0.2,1.5-0.4,2.1s-0.7,1.2-1.2,1.7
	c-0.5,0.5-1.1,0.9-1.7,1.2c-0.7,0.3-1.4,0.4-2.1,0.4c-0.8,0-1.5-0.2-2.1-0.4c-0.7-0.3-1.2-0.7-1.7-1.2c-0.5-0.5-0.9-1.1-1.2-1.7
	s-0.4-1.4-0.4-2.1v-6.5l-3.6-3.6l-4.2,4.1c-0.3,0.3-0.8,0.5-1.3,0.5H13.7c-0.8,0-1.5-0.2-2.1-0.4c-0.7-0.3-1.2-0.7-1.7-1.2
	C9.3,46,9,45.5,8.6,44.9c-0.3-0.7-0.4-1.4-0.4-2.1c0-0.8,0.2-1.5,0.4-2.1c0.3-0.7,0.7-1.2,1.2-1.7c0.5-0.5,1.1-0.9,1.7-1.2
	c0.7-0.3,1.4-0.4,2.1-0.4h6.5l2.3-2.2c-1-0.6-1.8-1.3-2.4-2.1c-0.6-0.9-0.9-1.9-0.9-3V19c0-0.5,0.1-1,0.3-1.5
	c0.2-0.4,0.4-0.9,0.8-1.1c0.3-0.3,0.7-0.6,1.2-0.8c0.4-0.2,0.9-0.3,1.5-0.3h14.5c0-1,0.2-2,0.6-2.8c0.3-0.9,0.9-1.6,1.5-2.3
	c0.7-0.7,1.5-1.2,2.3-1.5c0.9-0.3,1.8-0.5,2.8-0.6c1,0,2,0.2,2.8,0.6c0.9,0.3,1.6,0.9,2.3,1.5c0.7,0.6,1.2,1.4,1.5,2.3
	c0.3,0.9,0.5,1.8,0.6,2.8c0,0.8-0.1,1.5-0.3,2.3c-0.3,0.7-0.6,1.4-1,2c-0.4,0.6-0.9,1.2-1.6,1.6c-0.6,0.4-1.3,0.8-2,1l4,3.9h2.9
	c0.8,0,1.4,0.2,2.1,0.4c0.7,0.3,1.2,0.7,1.7,1.2c0.5,0.5,0.9,1.1,1.2,1.7S59,31,59,31.7z M44.5,11.8c-0.5,0-1,0.1-1.5,0.3
	c-0.4,0.2-0.9,0.4-1.1,0.8c-0.3,0.3-0.6,0.7-0.8,1.2c-0.2,0.4-0.3,0.9-0.3,1.4c0,0.5,0.1,1,0.3,1.5c0.2,0.4,0.4,0.9,0.8,1.1
	c0.3,0.3,0.7,0.6,1.2,0.8c0.4,0.2,0.9,0.3,1.5,0.3c0.4,0,0.9-0.1,1.4-0.3c0.4-0.2,0.9-0.4,1.2-0.8c0.3-0.3,0.6-0.7,0.9-1.1
	c0.2-0.4,0.3-0.9,0.3-1.4c0-0.5-0.1-1-0.3-1.5c-0.2-0.5-0.4-0.9-0.7-1.2c-0.3-0.3-0.7-0.6-1.2-0.9C45.5,11.8,45,11.8,44.5,11.8z
	 M53.6,33.5c0.5,0,0.9-0.2,1.3-0.5c0.3-0.3,0.5-0.8,0.5-1.3s-0.2-0.9-0.5-1.3c-0.3-0.3-0.8-0.5-1.3-0.5H50c-0.5,0-0.9-0.2-1.3-0.5
	L38.3,19H22.7v10.9c0,0.5,0.2,0.9,0.5,1.3s0.8,0.5,1.3,0.5c0.7,0,1.2-0.3,1.5-0.7c0.3-0.4,0.4-1,0.4-1.7s0-1.5-0.1-2.2
	c-0.1-0.8-0.1-1.5-0.1-2.2c0.1-0.7,0.2-1.3,0.4-1.7c0.3-0.4,0.7-0.7,1.5-0.7h5.5c0.5,0,0.9,0.2,1.3,0.5c0.3,0.3,0.5,0.8,0.5,1.3
	c0,0.5-0.2,0.9-0.5,1.3c-0.3,0.3-0.8,0.5-1.3,0.5H30v5.5c0,0.5-0.2,0.9-0.5,1.3l-7.2,7.2c-0.3,0.3-0.8,0.5-1.3,0.5h-7.3
	c-0.5,0-0.9,0.2-1.3,0.5c-0.3,0.3-0.5,0.8-0.5,1.3c0,0.5,0.2,0.9,0.5,1.3c0.3,0.3,0.8,0.5,1.3,0.5h10.2l4.9-4.9
	c0.3-0.3,0.8-0.5,1.3-0.5c0.5,0,0.9,0.2,1.3,0.5l5.5,5.5c0.3,0.3,0.5,0.8,0.5,1.3v7.2c0,0.5,0.2,0.9,0.5,1.3
	c0.3,0.3,0.8,0.5,1.3,0.5s0.9-0.2,1.3-0.5c0.3-0.3,0.5-0.8,0.5-1.3v-10l-6.7-6.7c-0.3-0.3-0.5-0.8-0.5-1.3c0-0.5,0.2-0.9,0.5-1.3
	l5.5-5.5c0.3-0.3,0.8-0.5,1.3-0.5s0.9,0.2,1.3,0.5l4.9,4.9L53.6,33.5L53.6,33.5z M15.5,17.2c0,0.5-0.2,0.9-0.5,1.3
	c-0.3,0.3-0.8,0.5-1.3,0.5H2.8c-0.5,0-0.9-0.2-1.3-0.5C1.2,18.2,1,17.7,1,17.2c0-0.5,0.2-0.9,0.5-1.3c0.3-0.3,0.8-0.5,1.3-0.5h10.9
	c0.5,0,0.9,0.2,1.3,0.5C15.3,16.3,15.5,16.7,15.5,17.2z M15.5,24.5c0,0.5-0.2,0.9-0.5,1.3c-0.3,0.3-0.8,0.5-1.3,0.5H6.4
	c-0.5,0-0.9-0.2-1.3-0.5c-0.3-0.3-0.5-0.8-0.5-1.3c0-0.5,0.2-0.9,0.5-1.3s0.8-0.5,1.3-0.5h7.3c0.5,0,0.9,0.2,1.3,0.5
	C15.3,23.5,15.5,24,15.5,24.5z M13.7,29.8c0.5,0,0.9,0.2,1.3,0.5c0.3,0.3,0.5,0.8,0.5,1.3s-0.2,0.9-0.5,1.3s-0.8,0.5-1.3,0.5H10
	c-0.5,0-0.9-0.2-1.3-0.5s-0.5-0.8-0.5-1.3s0.2-0.9,0.5-1.3c0.3-0.3,0.8-0.5,1.3-0.5H13.7z"/>
</svg>
