<?xml version="1.0" encoding="utf-8"?>
<!-- Generator: Adobe Illustrator 24.2.0, SVG Export Plug-In . SVG Version: 6.00 Build 0)  -->
<svg version="1.1" id="Layer_1" xmlns="http://www.w3.org/2000/svg" xmlns:xlink="http://www.w3.org/1999/xlink" x="0px" y="0px"
	 viewBox="0 0 60 60" style="enable-background:new 0 0 60 60;" xml:space="preserve">
<style type="text/css">
	.st0{fill:#FFFFFF;}
</style>
<path class="st0" d="M52.4,32.5c0,1-0.2,1.9-0.6,2.7s-0.9,1.5-1.6,2.2c-0.7,0.7-1.5,1.2-2.3,1.7c-0.9,0.5-1.8,0.9-2.7,1.3
	c-0.9,0.3-1.9,0.6-2.8,0.8c-0.9,0.2-1.8,0.3-2.6,0.4v9.3l-16.3,8.2L7.1,50.7V30.4l16.3-8.2l3.3,1.7L37.9,1.6L51.5,29
	C52.1,30.1,52.4,31.3,52.4,32.5z M23.4,26.3l-10.5,5.2l10.5,5.2l10.5-5.2L23.4,26.3z M10.7,48.5L21.6,54V39.9l-10.9-5.4
	C10.7,34.5,10.7,48.5,10.7,48.5z M36.1,48.5v-14l-10.9,5.4V54L36.1,48.5z M39.7,37.8c0.4,0,0.9-0.1,1.5-0.3c0.6-0.1,1.3-0.3,2-0.5
	c0.7-0.2,1.4-0.4,2-0.8c0.7-0.3,1.3-0.6,1.8-1c0.5-0.4,0.9-0.9,1.3-1.3c0.3-0.5,0.5-1,0.5-1.6c0-0.7-0.2-1.3-0.4-1.8L37.9,9.7
	L30,25.6l9.7,4.9V37.8z"/>
</svg>
