<?xml version="1.0" encoding="utf-8"?>
<!-- Generator: Adobe Illustrator 24.2.1, SVG Export Plug-In . SVG Version: 6.00 Build 0)  -->
<svg version="1.1" id="icon" xmlns="http://www.w3.org/2000/svg" xmlns:xlink="http://www.w3.org/1999/xlink" x="0px" y="0px"
	 viewBox="0 0 60.3 49" style="enable-background:new 0 0 60.3 49;" xml:space="preserve">
<style type="text/css">
	.st0{fill:#FFFFFF;}
</style>
<rect class="st0" width="60.3" height="49"/>
<path d="M54.8,13.1c-1.7-1.7-3.7-3-5.8-4V0H26.4L0,26.4L22.6,49l7.5-7.5c3.2,2.4,7.2,3.8,11.3,3.8c5,0,9.8-2,13.3-5.5
	c3.6-3.6,5.5-8.3,5.5-13.3C60.3,21.3,58.3,16.6,54.8,13.1z M5.3,26.4L27.9,3.8h17.3v4.1c-1.2-0.2-2.5-0.4-3.8-0.4h-1.9
	c-1,0-1.9,0.8-1.9,1.9s0.8,1.9,1.9,1.9h1.9c1.3,0,2.6,0.2,3.8,0.5v9.3L22.6,43.7L5.3,26.4z M41.5,41.5c-3.1,0-6.1-0.9-8.6-2.7
	L49,22.6v-9.3c4.5,2.6,7.5,7.5,7.5,13.1C56.5,34.7,49.8,41.5,41.5,41.5z"/>
</svg>
