<svg id="Livello_3" data-name="Livello 3" xmlns="http://www.w3.org/2000/svg" viewBox="0 0 249.78 130.1"><defs><style>.cls-1{font-size:48px;font-family:TimesNewRomanPSMT, Times New Roman;}</style></defs><title>Logo2.0</title><path d="M126.05,184.74c-.24-13.74-.26-27.69-.26-41.72v-8.64c0-14.55,0-29.15.28-43.58l16.19-1.36V85H101c-24.77,0-37.1,12.22-37.1,31.17,0,18.23,13.23,32.18,43,32.18H117.1c0,12.5,0,25.27-.27,38.29L99.69,188v4.49h24c.07-.14.14-.28.22-.42a10.76,10.76,0,0,1,.7-1.45,9.24,9.24,0,0,1,1.08-1.61A11.19,11.19,0,0,1,126.05,184.74Zm-9-41.32h-10c-24.62,0-34.17-11.3-34.17-27.3,0-16.89,9-26.1,29.8-26.1h14.13c.28,14.59.29,29.44.29,44.36Z" transform="translate(-63.87 -84.95)"/><path d="M145.71,215.05c-19.37,0-28.61-10-28.61-21.32,0-9.7,5.5-16.06,20.41-21.58l6.76-2.51c10.75-4,15.59-7.55,15.59-15.39s-5.76-13.74-17.63-13.74a29.21,29.21,0,0,0-17.88,6.16v-3.11l-1.68-1.32.51,14.87h-2.45l-.45-15c7.14-4.33,13-6.44,21.6-6.44,16.47,0,25.63,9,25.63,20.46,0,10.66-7.56,16.59-19,20.8l-7.43,2.71c-12,4.33-16.25,8.31-16.25,15.74,0,8.56,6.78,14.83,20.57,14.83,9.3,0,15-2.14,20.46-5.79v3.82l-5.16,2.16,3.17-17.4h5.52l-.54,16.62C161.12,213.17,154.54,215.05,145.71,215.05Z" transform="translate(-63.87 -84.95)"/><text class="cls-1" transform="translate(111.13 77.64)">Paislay</text></svg>