<svg width="453.3875px" height="99.2px" xmlns="http://www.w3.org/2000/svg" viewBox="23.306250000000006 25.4 453.3875 99.2" style="background: rgba(0, 0, 0, 0);" preserveAspectRatio="xMidYMid"><defs><linearGradient id="editing-sticker-gradient" x1="0.5" y1="0.2" x2="0.5" y2="0.8"><stop offset="0" stop-color="#fd9"></stop><stop offset="1" stop-color="#9df"></stop></linearGradient><filter id="editing-sticker" x="-100%" y="-100%" width="300%" height="300%"><feMorphology operator="erode" radius="1" in="SourceAlpha" result="alpha-erode"></feMorphology><feConvolveMatrix order="3,3" divisor="1" kernelMatrix="0 1 0 1 1 1 0 1 0" in="alpha-erode" result="alpha-round"></feConvolveMatrix><feMorphology operator="dilate" radius="3.5" in="alpha-round" result="dilate-shadow"></feMorphology><feGaussianBlur in="dilate-shadow" stdDeviation="1.5" result="shadow"></feGaussianBlur><feFlood flood-color="#fff" result="flood-sticker"></feFlood><feComposite operator="in" in="flood-sticker" in2="alpha-round" result="comp-sticker"></feComposite><feMorphology operator="dilate" radius="3" in="comp-sticker" result="morph-sticker"></feMorphology><feConvolveMatrix order="3,3" divisor="1" kernelMatrix="0 1 0 1 1 1 0 1 0" in="morph-sticker" result="sticker"></feConvolveMatrix><feMerge><feMergeNode in="shadow"></feMergeNode><feMergeNode in="sticker"></feMergeNode><feMergeNode in="SourceGraphic"></feMergeNode></feMerge></filter></defs><g filter="url(#editing-sticker)"><g transform="translate(91.42497706413269, 97.00000190734863)"><path d="M26.95-10.35L26.95-10.35L26.95-10.35Q28.25-9.40 28.25-7.38L28.25-7.38L28.25-7.38Q28.25-5.35 27.38-3.93L27.38-3.93L27.38-3.93Q26.50-2.50 24.80-1.40L24.80-1.40L24.80-1.40Q21.15 0.95 14.78 0.95L14.78 0.95L14.78 0.95Q8.40 0.95 4.93-2.38L4.93-2.38L4.93-2.38Q1.45-5.70 1.45-11.60L1.45-11.60L1.45-11.60Q1.45-19.95 5.80-26.30L5.80-26.30L5.80-26.30Q9.10-31 15-33L15-33L15-33Q18.05-34 21.05-34L21.05-34L21.05-34Q24.05-34 25.90-33.60L25.90-33.60L25.90-33.60Q27.75-33.20 29.15-32.40L29.15-32.40L29.15-32.40Q32.20-30.65 32.20-27.85L32.20-27.85L32.20-27.85Q32.20-25.30 29.80-23.40L29.80-23.40L29.80-23.40Q27.60-21.70 25.80-21.70L25.80-21.70L25.80-21.70Q24-21.70 23.25-21.95L23.25-21.95L23.25-21.95Q23.45-23.75 23.45-24.93L23.45-24.93L23.45-24.93Q23.45-26.10 23.40-26.95L23.40-26.95L23.40-26.95Q23.35-27.80 23.10-28.60L23.10-28.60L23.10-28.60Q22.60-30.45 21.08-30.45L21.08-30.45L21.08-30.45Q19.55-30.45 18.03-29.03L18.03-29.03L18.03-29.03Q16.50-27.60 15.20-25.20L15.20-25.20L15.20-25.20Q12.25-19.75 12.25-13.30L12.25-13.30L12.25-13.30Q12.25-10.20 14-8.43L14-8.43L14-8.43Q15.75-6.65 19.50-6.65L19.50-6.65L19.50-6.65Q22.30-6.65 24.95-8.50L24.95-8.50L24.95-8.50Q26.10-9.30 26.95-10.35ZM43.30 1L43.30 1L43.30 1Q32.30 1 32.30-9.35L32.30-9.35L32.30-9.35Q32.30-16.70 36.35-21.45L36.35-21.45L36.35-21.45Q40.65-26.50 48.10-26.50L48.10-26.50L48.10-26.50Q53.50-26.50 56.25-24L56.25-24L56.25-24Q59-21.50 59-16.25L59-16.25L59-16.25Q59-8.25 54.70-3.60L54.70-3.60L54.70-3.60Q50.50 1 43.30 1ZM44.60-20.75L44.60-20.75L44.60-20.75Q44-19.40 43.53-17.38L43.53-17.38L43.53-17.38Q43.05-15.35 42.45-12.15L42.45-12.15L42.45-12.15Q41.85-8.95 41.85-5L41.85-5L41.85-5Q41.85-3.70 42.28-2.85L42.28-2.85L42.28-2.85Q42.70-2 43.85-2L43.85-2L43.85-2Q45-2 45.73-2.55L45.73-2.55L45.73-2.55Q46.45-3.10 47-4.40L47-4.40L47-4.40Q48-6.70 48.80-10.98L48.80-10.98L48.80-10.98Q49.60-15.25 49.67-17.10L49.67-17.10L49.67-17.10Q49.75-18.95 49.75-20.33L49.75-20.33L49.75-20.33Q49.75-21.70 49.35-22.60L49.35-22.60L49.35-22.60Q48.95-23.50 47.83-23.50L47.83-23.50L47.83-23.50Q46.70-23.50 45.95-22.80L45.95-22.80L45.95-22.80Q45.20-22.10 44.60-20.75ZM83.10 1L83.10 1L83.10 1Q77.05 1 77.05-3.70L77.05-3.70L77.05-3.70Q77.10-5 77.50-7.20L77.50-7.20L78.40-11.80L78.40-11.80Q79.75-18.30 79.75-19.75L79.75-19.75L79.75-19.75Q79.75-22.65 78.05-22.65L78.05-22.65L78.05-22.65Q75.20-22.65 73.70-15.20L73.70-15.20L70.75 0L60.70 1L65.90-25.55L74.10-26.50L73.30-21.60L73.30-21.60Q75.65-26.50 82.85-26.50L82.85-26.50L82.85-26.50Q86.35-26.50 87.83-25.03L87.83-25.03L87.83-25.03Q89.30-23.55 89.30-20.25L89.30-20.25L89.30-20.25Q89.30-17.15 87.70-9.90L87.70-9.90L87.70-9.90Q86.95-6.65 86.95-5.43L86.95-5.43L86.95-5.43Q86.95-4.20 87.63-3.50L87.63-3.50L87.63-3.50Q88.30-2.80 89.30-2.70L89.30-2.70L89.30-2.70Q88.80-1 87.08 0L87.08 0L87.08 0Q85.35 1 83.10 1ZM94.10-5L94.10-5L94.10-5Q94.10-6.35 94.80-9.75L94.80-9.75L97.45-23.25L94.50-23.25L94.70-24.75L94.70-24.75Q100.70-26.55 106.50-30.95L106.50-30.95L108.90-30.95L107.70-25.50L111.60-25.50L111.15-23.25L107.30-23.25L104.75-9.75L104.75-9.75Q104.10-6.65 104.10-5.60L104.10-5.60L104.10-5.60Q104.10-3.20 106.20-2.70L106.20-2.70L106.20-2.70Q105.70-1 103.90 0L103.90 0L103.90 0Q102.10 1 99.55 1L99.55 1L99.55 1Q97 1 95.55-0.60L95.55-0.60L95.55-0.60Q94.10-2.20 94.10-5ZM113.33-1.50L113.33-1.50L113.33-1.50Q112.15-2.80 111.63-4.85L111.63-4.85L111.63-4.85Q111.10-6.90 111.10-10.25L111.10-10.25L111.10-10.25Q111.10-13.60 112.25-16.65L112.25-16.65L112.25-16.65Q113.40-19.70 115.50-21.90L115.50-21.90L115.50-21.90Q119.80-26.50 126.90-26.50L126.90-26.50L126.90-26.50Q129.45-26.50 131.30-25.65L131.30-25.65L139.85-26.50L136.15-7L136.15-7Q136-6.40 136-5.30L136-5.30L136-5.30Q136-4.20 136.68-3.50L136.68-3.50L136.68-3.50Q137.35-2.80 138.35-2.70L138.35-2.70L138.35-2.70Q137.85-1 136.03 0L136.03 0L136.03 0Q134.20 1 132.15 1L132.15 1L132.15 1Q130.10 1 128.72 0.23L128.72 0.23L128.72 0.23Q127.35-0.55 126.95-1.85L126.95-1.85L126.95-1.85Q126.15-0.60 124.45 0.20L124.45 0.20L124.45 0.20Q122.75 1 120.47 1L120.47 1L120.47 1Q118.20 1 116.35 0.40L116.35 0.40L116.35 0.40Q114.50-0.20 113.33-1.50ZM123.88-21.80L123.88-21.80L123.88-21.80Q123.30-20.90 122.80-19.38L122.80-19.38L122.80-19.38Q122.30-17.85 121.47-13.78L121.47-13.78L121.47-13.78Q120.65-9.70 120.65-6.80L120.65-6.80L120.65-6.80Q120.65-3.90 121.10-3.05L121.10-3.05L121.10-3.05Q121.55-2.20 122.35-2.20L122.35-2.20L122.35-2.20Q123.95-2.20 125.13-3.73L125.13-3.73L125.13-3.73Q126.30-5.25 126.75-7.95L126.75-7.95L129.40-22.60L129.40-22.60Q128.35-23.50 127.13-23.50L127.13-23.50L127.13-23.50Q125.90-23.50 125.17-23.10L125.17-23.10L125.17-23.10Q124.45-22.70 123.88-21.80ZM166.90-20.80L166.90-20.80L166.90-20.80Q166.90-18.70 165.15-17.40L165.15-17.40L165.15-17.40Q163.40-16.10 160.55-16.10L160.55-16.10L160.55-16.10Q159.35-16.10 158.65-16.45L158.65-16.45L158.65-16.45Q159.20-17.75 159.38-19.38L159.38-19.38L159.38-19.38Q159.55-21 159.55-21.45L159.55-21.45L159.55-21.45Q159.55-23.55 158.10-23.55L158.10-23.55L158.10-23.55Q157.10-23.55 155.97-22.30L155.97-22.30L155.97-22.30Q154.85-21.05 153.90-19.10L153.90-19.10L153.90-19.10Q151.80-14.60 151.80-10.05L151.80-10.05L151.80-10.05Q151.80-7.55 152.75-6.43L152.75-6.43L152.75-6.43Q153.70-5.30 155.80-5.30L155.80-5.30L155.80-5.30Q158.70-5.30 161-7.70L161-7.70L161-7.70Q161.65-8.45 162-9.30L162-9.30L162-9.30Q163.90-8.30 163.90-5.55L163.90-5.55L163.90-5.55Q163.90-2.75 160.80-0.90L160.80-0.90L160.80-0.90Q157.60 1 152.50 1L152.50 1L152.50 1Q142.35 1 142.35-9.75L142.35-9.75L142.35-9.75Q142.35-17.60 146.80-22.10L146.80-22.10L146.80-22.10Q151.10-26.50 159-26.50L159-26.50L159-26.50Q166.90-26.50 166.90-20.80ZM169.05-5L169.05-5L169.05-5Q169.05-6.35 169.75-9.75L169.75-9.75L172.40-23.25L169.45-23.25L169.65-24.75L169.65-24.75Q175.65-26.55 181.45-30.95L181.45-30.95L183.85-30.95L182.65-25.50L186.55-25.50L186.10-23.25L182.25-23.25L179.70-9.75L179.70-9.75Q179.05-6.65 179.05-5.60L179.05-5.60L179.05-5.60Q179.05-3.20 181.15-2.70L181.15-2.70L181.15-2.70Q180.65-1 178.85 0L178.85 0L178.85 0Q177.05 1 174.50 1L174.50 1L174.50 1Q171.95 1 170.50-0.60L170.50-0.60L170.50-0.60Q169.05-2.20 169.05-5ZM189.65-20.90L189.65-20.90L189.65-20.90Q191.35-23.30 193.93-24.90L193.93-24.90L193.93-24.90Q196.50-26.50 199.65-26.50L199.65-26.50L199.65-26.50Q202.80-26.50 204.30-25.50L204.30-25.50L214.10-26.50L210.70-7.30L210.70-7.30Q208.95 2.50 205.25 6.35L205.25 6.35L205.25 6.35Q201.70 10 194.80 10L194.80 10L194.80 10Q189.55 10 186.55 8.35L186.55 8.35L186.55 8.35Q183.55 6.70 183.55 3.95L183.55 3.95L183.55 3.95Q183.55 1.90 185.10 0.73L185.10 0.73L185.10 0.73Q186.65-0.45 189.05-0.45L189.05-0.45L189.05-0.45Q191.15-0.45 192.75 0.50L192.75 0.50L192.75 0.50Q193.70 1 194.15 1.70L194.15 1.70L194.15 1.70Q193.00 2.70 193.00 4.35L193.00 4.35L193.00 4.35Q193.00 6.50 195.00 6.50L195.00 6.50L195.00 6.50Q198.35 6.50 200.25-1.40L200.25-1.40L200.25-1.40Q200.80-3.55 201.25-5.70L201.25-5.70L201.25-5.70Q199.00-2.95 193.90-2.95L193.90-2.95L193.90-2.95Q190.35-2.95 188.30-4.65L188.30-4.65L188.30-4.65Q186.25-6.35 186.25-10.35L186.25-10.35L186.25-10.35Q186.25-12.85 187.10-15.68L187.10-15.68L187.10-15.68Q187.95-18.50 189.65-20.90ZM196.15-10.20L196.15-10.20L196.15-10.20Q196.15-6.80 197.90-6.80L197.90-6.80L197.90-6.80Q199.10-6.80 200.25-8.10L200.25-8.10L200.25-8.10Q201.15-9.15 201.50-10.70L201.50-10.70L204.05-23.55L204.05-23.55Q203.80-23.60 203.55-23.70L203.55-23.70L203.55-23.70Q203.05-23.90 202.40-23.90L202.40-23.90L202.40-23.90Q199.35-23.90 197.55-18.90L197.55-18.90L197.55-18.90Q196.15-15 196.15-10.20ZM231.70-14.05L231.70-14.05L231.70-14.05Q233.50-17.25 233.50-20.50L233.50-20.50L233.50-20.50Q233.50-22.65 231.95-22.65L231.95-22.65L231.95-22.65Q230.75-22.65 229.50-20.60L229.50-20.60L229.50-20.60Q228.20-18.55 227.80-15.90L227.80-15.90L225.20 0L214.85 1L219.95-25.50L228.20-26.50L227.30-21.45L227.30-21.45Q229.75-26.50 235.25-26.50L235.25-26.50L235.25-26.50Q238.15-26.50 239.73-25L239.73-25L239.73-25Q241.30-23.50 241.30-20.43L241.30-20.43L241.30-20.43Q241.30-17.35 239.28-15.40L239.28-15.40L239.28-15.40Q237.25-13.45 233.80-13.45L233.80-13.45L233.80-13.45Q232.30-13.45 231.70-14.05ZM244.28-1.50L244.28-1.50L244.28-1.50Q243.10-2.80 242.58-4.85L242.58-4.85L242.58-4.85Q242.05-6.90 242.05-10.25L242.05-10.25L242.05-10.25Q242.05-13.60 243.20-16.65L243.20-16.65L243.20-16.65Q244.35-19.70 246.45-21.90L246.45-21.90L246.45-21.90Q250.75-26.50 257.85-26.50L257.85-26.50L257.85-26.50Q260.40-26.50 262.25-25.65L262.25-25.65L270.80-26.50L267.10-7L267.10-7Q266.95-6.40 266.95-5.30L266.95-5.30L266.95-5.30Q266.95-4.20 267.63-3.50L267.63-3.50L267.63-3.50Q268.30-2.80 269.30-2.70L269.30-2.70L269.30-2.70Q268.80-1 266.98 0L266.98 0L266.98 0Q265.15 1 263.10 1L263.10 1L263.10 1Q261.05 1 259.68 0.23L259.68 0.23L259.68 0.23Q258.30-0.55 257.90-1.85L257.90-1.85L257.90-1.85Q257.10-0.60 255.40 0.20L255.40 0.20L255.40 0.20Q253.70 1 251.43 1L251.43 1L251.43 1Q249.15 1 247.30 0.40L247.30 0.40L247.30 0.40Q245.45-0.20 244.28-1.50ZM254.83-21.80L254.83-21.80L254.83-21.80Q254.25-20.90 253.75-19.38L253.75-19.38L253.75-19.38Q253.25-17.85 252.43-13.78L252.43-13.78L252.43-13.78Q251.60-9.70 251.60-6.80L251.60-6.80L251.60-6.80Q251.60-3.90 252.05-3.05L252.05-3.05L252.05-3.05Q252.50-2.20 253.30-2.20L253.30-2.20L253.30-2.20Q254.90-2.20 256.08-3.73L256.08-3.73L256.08-3.73Q257.25-5.25 257.70-7.95L257.70-7.95L260.35-22.60L260.35-22.60Q259.30-23.50 258.08-23.50L258.08-23.50L258.08-23.50Q256.85-23.50 256.13-23.10L256.13-23.10L256.13-23.10Q255.40-22.70 254.83-21.80ZM309.50 1L309.50 1L309.50 1Q303.45 1 303.45-3.70L303.45-3.70L303.45-3.70Q303.45-5.75 304.33-9.73L304.33-9.73L304.33-9.73Q305.20-13.70 305.50-15.30L305.50-15.30L305.50-15.30Q306.20-18.95 306.20-20.10L306.20-20.10L306.20-20.10Q306.20-22.65 304.30-22.65L304.30-22.65L304.30-22.65Q303.05-22.65 301.85-20.93L301.85-20.93L301.85-20.93Q300.65-19.20 300.10-15.75L300.10-15.75L297.00 0L287.25 1L289.95-12.60L289.95-12.60Q290.40-14.85 290.80-17.40L290.80-17.40L290.80-17.40Q291.20-19.95 291.20-20.35L291.20-20.35L291.20-20.35Q291.20-22.65 289.50-22.65L289.50-22.65L289.50-22.65Q288.35-22.65 287.10-20.95L287.10-20.95L287.10-20.95Q285.85-19.25 285.15-15.75L285.15-15.75L282.10 0L272.25 1L277.50-25.50L285.65-26.50L284.80-21.45L284.80-21.45Q286.10-24.15 288.50-25.33L288.50-25.33L288.50-25.33Q290.90-26.50 294.65-26.50L294.65-26.50L294.65-26.50Q296.80-26.50 298.20-25.45L298.20-25.45L298.20-25.45Q299.60-24.40 300.05-22.70L300.05-22.70L300.05-22.70Q300.90-24.45 303.08-25.48L303.08-25.48L303.08-25.48Q305.25-26.50 307.93-26.50L307.93-26.50L307.93-26.50Q310.60-26.50 311.93-25.93L311.93-25.93L311.93-25.93Q313.25-25.35 314.05-24.40L314.05-24.40L314.05-24.40Q315.40-22.65 315.40-19.45L315.40-19.45L315.40-19.45Q315.40-16.30 314.05-9.75L314.05-9.75L314.05-9.75Q313.35-6.55 313.35-5.38L313.35-5.38L313.35-5.38Q313.35-4.20 314.03-3.50L314.03-3.50L314.03-3.50Q314.70-2.80 315.70-2.70L315.70-2.70L315.70-2.70Q315.20-1 313.48 0L313.48 0L313.48 0Q311.75 1 309.50 1Z" fill="url(#editing-sticker-gradient)" stroke="#000" stroke-width="2.5"></path></g></g><style>text {
  font-size: 64px;
  font-family: Arial Black;
  dominant-baseline: central;
  text-anchor: middle;
}</style></svg>