<svg xmlns="http://www.w3.org/2000/svg" xmlns:xlink="http://www.w3.org/1999/xlink" id="Layer_1" x="0px" y="0px" width="96px" height="76px" viewBox="0 0 96 76" xml:space="preserve">
<g>
	<g>
		<path fill="#2A3CB7" d="M-20.125,74h-75.75c-0.669,0-1.212-0.542-1.212-1.212V51.009c0-3.112,2.533-5.642,5.647-5.642h2.497    c3.111,0,5.642,2.53,5.642,5.642v15.125h-2.424V51.009c0-1.774-1.443-3.218-3.218-3.218h-2.497c-1.777,0-3.224,1.444-3.224,3.218    v20.567h73.326V51.009c0-1.774-1.443-3.218-3.218-3.218h-2.497c-1.777,0-3.224,1.444-3.224,3.218v15.125h-2.424V51.009    c0-3.112,2.533-5.642,5.647-5.642h2.497c3.111,0,5.642,2.53,5.642,5.642v21.779C-18.913,73.458-19.456,74-20.125,74z"></path>
	</g>
	<g>
		<path fill="#2A3CB7" d="M-87.086,46.579h-2.424V43.21c0-4.63,3.21-8.398,7.157-8.398h24.354v2.424h-24.354    c-2.61,0-4.733,2.681-4.733,5.974V46.579z"></path>
	</g>
	<g>
		<path fill="#2A3CB7" d="M-26.487,46.579h-2.424V43.21c0-3.293-2.124-5.974-4.733-5.974h-7.637v-2.424h7.637    c3.947,0,7.157,3.768,7.157,8.398V46.579z"></path>
	</g>
	<g>
		<rect x="-59.534" y="34.812" fill="#2A3CB7" width="18.475" height="2.424"></rect>
	</g>
	<g>
		<path fill="#2A3CB7" d="M-57.998,36.024"></path>
	</g>
	<g>
		<path fill="#2A3CB7" d="M-56.591,61.596h-2.424c0-3.126-2.543-5.669-5.669-5.669h-12.749c-0.897,0-1.755,0.204-2.55,0.604    l-1.091-2.164c1.136-0.574,2.361-0.864,3.641-0.864h12.749C-60.222,53.502-56.591,57.133-56.591,61.596z"></path>
	</g>
	<g>
		<path fill="#2A3CB7" d="M-56.591,61.596h-2.424c0-4.462,3.631-8.093,8.094-8.093h12.75c1.092,0,2.151,0.214,3.15,0.637    l-0.944,2.232c-0.698-0.295-1.44-0.445-2.206-0.445h-12.75C-54.047,55.926-56.591,58.47-56.591,61.596z"></path>
	</g>
</g>
<g>
	<path fill="#2A3CB7" d="M60.466,71.643c0.213-0.083,0.427-0.165,0.64-0.253c0.222-0.092,0.441-0.189,0.661-0.287   c0.329-0.143,0.655-0.289,0.979-0.443c0.099-0.047,0.197-0.098,0.296-0.146c3.318-1.619,6.432-3.795,9.185-6.549   c2.756-2.756,4.936-5.872,6.554-9.194c0.046-0.095,0.095-0.188,0.14-0.282c0.156-0.329,0.304-0.661,0.45-0.994   c0.095-0.215,0.189-0.43,0.28-0.646c0.09-0.218,0.173-0.436,0.258-0.654c0.134-0.339,0.264-0.679,0.386-1.024   c0.035-0.098,0.066-0.196,0.1-0.294c1.205-3.495,1.868-7.239,1.868-11.137c0-7.406-2.315-14.398-6.601-20.222   c-0.021-0.031-0.045-0.061-0.066-0.091c-0.292-0.393-0.59-0.78-0.9-1.161c-0.09-0.114-0.185-0.227-0.277-0.34   c-0.252-0.303-0.51-0.603-0.771-0.899c-0.154-0.174-0.312-0.346-0.471-0.518c-0.22-0.238-0.443-0.474-0.672-0.707   c-0.093-0.096-0.182-0.195-0.276-0.291c-0.112-0.113-0.232-0.219-0.347-0.331c-0.108-0.106-0.211-0.215-0.321-0.319l-0.006,0.007   C66.057,9.654,59.18,6.481,51.761,5.684c-0.231-0.026-0.464-0.048-0.696-0.069c-0.228-0.02-0.456-0.041-0.687-0.057   c-0.46-0.032-0.921-0.054-1.384-0.067c-0.137-0.003-0.274-0.004-0.412-0.007C48.388,5.482,48.195,5.476,48,5.476   c-0.154,0-0.308,0.01-0.462,0.012c-0.157,0.002-0.313-0.003-0.471,0.001v0.011c-5.841,0.157-11.318,1.781-16.083,4.52l-0.013-0.021   c-0.228,0.13-0.444,0.278-0.668,0.414c-0.055,0.032-0.107,0.066-0.161,0.099c-1.342,0.822-2.626,1.737-3.847,2.739   c-0.044,0.036-0.089,0.072-0.132,0.108c-0.824,0.684-1.63,1.393-2.391,2.153c-2.755,2.755-4.933,5.87-6.552,9.191   c-0.047,0.096-0.096,0.191-0.142,0.288c-0.156,0.327-0.303,0.657-0.448,0.988c-0.095,0.217-0.191,0.434-0.282,0.653   c-0.089,0.215-0.172,0.432-0.257,0.648c-0.133,0.341-0.264,0.683-0.388,1.029c-0.033,0.096-0.064,0.192-0.098,0.288   c-1.205,3.495-1.87,7.241-1.87,11.143c0,3.898,0.664,7.643,1.869,11.137c0.033,0.098,0.065,0.197,0.1,0.294   c0.122,0.344,0.252,0.684,0.385,1.022c0.086,0.219,0.17,0.439,0.26,0.657c0.09,0.216,0.185,0.43,0.278,0.643   c0.146,0.335,0.295,0.668,0.452,0.999c0.045,0.093,0.092,0.184,0.137,0.276c1.619,3.323,3.798,6.441,6.556,9.198   c2.758,2.758,5.876,4.938,9.201,6.557c0.091,0.045,0.181,0.091,0.272,0.135c0.332,0.157,0.667,0.307,1.003,0.454   c0.212,0.094,0.424,0.188,0.638,0.276c0.22,0.091,0.44,0.176,0.662,0.262c0.336,0.132,0.675,0.261,1.017,0.383   c0.1,0.035,0.199,0.067,0.3,0.102C40.36,73.337,44.103,74,48,74c3.902,0,7.65-0.665,11.148-1.872   c0.093-0.031,0.188-0.062,0.279-0.095C59.778,71.909,60.123,71.777,60.466,71.643z M61.706,68.472   c-0.302,0.145-0.609,0.278-0.916,0.414c-0.203,0.089-0.404,0.18-0.609,0.264c-0.199,0.083-0.4,0.159-0.6,0.237   c-0.318,0.124-0.637,0.248-0.959,0.361c-0.088,0.031-0.177,0.06-0.268,0.09c-6.693,2.291-14.002,2.292-20.697,0.004   c-0.094-0.032-0.188-0.063-0.282-0.096c-0.316-0.111-0.629-0.233-0.942-0.355c-0.206-0.08-0.413-0.158-0.616-0.243   c-0.199-0.082-0.396-0.17-0.592-0.257c-0.313-0.138-0.626-0.274-0.933-0.422c-0.086-0.04-0.169-0.084-0.254-0.125   c-6.356-3.115-11.526-8.286-14.642-14.642c-0.042-0.085-0.086-0.17-0.126-0.255c-0.147-0.307-0.284-0.619-0.422-0.931   c-0.087-0.198-0.176-0.395-0.258-0.595c-0.084-0.203-0.162-0.408-0.242-0.613c-0.122-0.314-0.244-0.629-0.356-0.946   c-0.032-0.092-0.063-0.186-0.094-0.278c-2.289-6.693-2.289-14.002,0.001-20.695c0.031-0.091,0.061-0.184,0.093-0.275   c0.112-0.319,0.235-0.635,0.358-0.951c0.079-0.203,0.156-0.406,0.239-0.607c0.083-0.202,0.174-0.401,0.261-0.602   c0.137-0.309,0.273-0.619,0.419-0.923c0.041-0.088,0.086-0.175,0.129-0.262c2.002-4.082,4.849-7.676,8.315-10.549   c0.037-0.031,0.075-0.062,0.112-0.093c1.143-0.938,2.351-1.798,3.617-2.573c0.031-0.019,0.063-0.038,0.094-0.058   C36.228,9.65,41.711,7.989,47.57,7.91c0.325-0.004,0.65-0.007,0.974-0.002c0.127,0.002,0.253,0.003,0.38,0.006   c0.433,0.012,0.863,0.034,1.292,0.062c0.208,0.015,0.415,0.033,0.623,0.052c0.224,0.02,0.447,0.042,0.67,0.066   c1.64,0.18,3.261,0.482,4.848,0.912l0.001-0.005c5.163,1.392,9.903,4.084,13.85,7.931c0.187,0.182,0.37,0.364,0.552,0.549   c0.221,0.226,0.438,0.453,0.649,0.684c0.14,0.151,0.277,0.303,0.413,0.456c0.253,0.283,0.498,0.569,0.738,0.858   c0.081,0.098,0.16,0.196,0.24,0.294c0.292,0.361,0.576,0.726,0.85,1.098c0.017,0.022,0.034,0.045,0.05,0.068   c6.244,8.525,7.711,19.476,4.405,29.143c-0.031,0.094-0.062,0.188-0.095,0.282c-0.112,0.316-0.233,0.63-0.355,0.944   c-0.08,0.205-0.158,0.411-0.242,0.615c-0.083,0.199-0.172,0.396-0.259,0.594c-0.137,0.312-0.273,0.624-0.422,0.931   c-0.039,0.085-0.083,0.169-0.124,0.255c-3.115,6.352-8.279,11.519-14.629,14.635C61.887,68.381,61.796,68.428,61.706,68.472z"></path>
	<g>
		<rect x="46.79" y="18.811" fill="#2A3CB7" width="2.424" height="27.267"></rect>
	</g>
	<g>
		
			<rect x="49.851" y="28.964" transform="matrix(0.6041 0.7969 -0.7969 0.6041 50.7178 -25.5378)" fill="#2A3CB7" width="2.425" height="18.632"></rect>
	</g>
	<g>
		<rect x="46.79" y="11.451" fill="#2A3CB7" width="2.424" height="2.35"></rect>
	</g>
	<g>
		
			<rect x="27.044" y="19.608" transform="matrix(0.7069 0.7073 -0.7073 0.7069 22.9971 -13.8576)" fill="#2A3CB7" width="2.35" height="2.423"></rect>
	</g>
	<g>
		<rect x="18.85" y="39.389" fill="#2A3CB7" width="2.35" height="2.424"></rect>
	</g>
	<g>
		
			<rect x="27.006" y="59.208" transform="matrix(0.7071 0.7071 -0.7071 0.7071 50.9624 -2.2675)" fill="#2A3CB7" width="2.424" height="2.35"></rect>
	</g>
	<g>
		<rect x="46.789" y="67.403" fill="#2A3CB7" width="2.424" height="2.35"></rect>
	</g>
	<g>
		
			<rect x="66.607" y="59.172" transform="matrix(0.7071 0.7071 -0.7071 0.7071 62.5512 -30.2435)" fill="#2A3CB7" width="2.351" height="2.424"></rect>
	</g>
	<g>
		<rect x="74.802" y="39.39" fill="#2A3CB7" width="2.349" height="2.424"></rect>
	</g>
	<g>
		
			<rect x="66.571" y="19.645" transform="matrix(0.7073 0.7069 -0.7069 0.7073 34.5578 -41.8223)" fill="#2A3CB7" width="2.424" height="2.351"></rect>
	</g>
</g>
<g>
	<g>
		<g>
			<path fill="#2A3CB7" d="M140.309,119.868h-7.568v-2.424h6.357v-6.358h2.424v7.57     C141.521,119.326,140.979,119.868,140.309,119.868z"></path>
		</g>
		<g>
			<path fill="#2A3CB7" d="M170.357,160h-42.059c-0.67,0-1.213-0.543-1.213-1.211v-44.254c0-0.32,0.129-0.629,0.355-0.856     l7.881-7.876c0.227-0.228,0.533-0.355,0.855-0.355h34.18c0.67,0,1.211,0.543,1.211,1.213v52.129     C171.568,159.457,171.027,160,170.357,160z M129.51,157.576h39.635v-49.705H136.68l-7.17,7.167V157.576z"></path>
		</g>
	</g>
	<path fill="#2A3CB7" d="M180.914,107.884V99.98c0-0.669-0.543-1.212-1.211-1.212h-34.18c-0.32,0-0.629,0.128-0.855,0.354   l-2.895,2.892l1.715,1.714l2.537-2.536h32.465v6.691v15.655v27.358h-4.846v2.425h6.059c0.668,0,1.211-0.543,1.211-1.213v-28.57   V107.884z"></path>
	<g>
		<rect x="137.645" y="126.758" fill="#2A3CB7" width="15.15" height="2.424"></rect>
	</g>
	<g>
		<rect x="137.645" y="133.803" fill="#2A3CB7" width="22.727" height="2.424"></rect>
	</g>
	<g>
		<rect x="137.645" y="140.848" fill="#2A3CB7" width="22.727" height="2.424"></rect>
	</g>
	<g>
		<rect x="137.645" y="147.893" fill="#2A3CB7" width="7.576" height="2.424"></rect>
	</g>
</g>
<g>
	<g>
		<line fill="#2A3CB7" x1="-79.733" y1="118.115" x2="-79.74" y2="118.035"></line>
	</g>
	<g>
		<path fill="#2A3CB7" d="M-63.5,117.35c-5.286,0-10.288-0.313-14.086-0.879c-5.854-0.875-6.829-2.006-7.01-3.1    c-0.005-0.029-0.009-0.061-0.012-0.09l-0.007-0.078c-0.003-0.037-0.005-0.072-0.005-0.109c0-0.9,0-3.012,12.2-3.938l0.183,2.418    c-5.387,0.408-8.137,1.07-9.34,1.525c2.08,0.791,8.117,1.826,18.077,1.826c9.952,0,15.986-1.035,18.07-1.824    c-1.09-0.41-3.454-0.998-7.927-1.41l0.223-2.414c10.751,0.99,10.751,2.898,10.751,3.816c0,1.635-1.988,2.605-6.859,3.352    C-53.06,117.029-58.124,117.35-63.5,117.35z"></path>
	</g>
	<g>
		<path fill="#2A3CB7" d="M-44.877,147.492l-0.429-2.385l4.272-0.77c2.332-0.328,4.098-1.756,4.439-3.561l2.754-14.543    c0.141-0.742-0.147-1.336-0.413-1.701c-0.542-0.744-1.476-1.248-2.562-1.385l-7.063-1.037l0.353-2.398l7.038,1.033    c1.722,0.217,3.259,1.078,4.193,2.361c0.774,1.063,1.071,2.334,0.835,3.578l-2.754,14.543c-0.534,2.826-3.121,5.035-6.437,5.502    L-44.877,147.492z"></path>
	</g>
	<g>
		
			<rect x="-87.042" y="134.728" transform="matrix(0.0896 0.996 -0.996 0.0896 66.7506 198.8565)" fill="#2A3CB7" width="23.289" height="2.424"></rect>
	</g>
	<g>
		<path fill="#2A3CB7" d="M-57.706,110.518l-1.816-1.607c0.215-0.244,5.238-6.098,0.089-10.818    c-2.106-1.932-3.083-3.938-2.903-5.965c0.263-2.967,2.958-4.707,3.073-4.779l1.297,2.049l-0.648-1.023l0.653,1.02    c-0.018,0.012-1.814,1.193-1.962,2.961c-0.103,1.234,0.612,2.563,2.128,3.951C-52.265,101.375-55.319,107.818-57.706,110.518z"></path>
	</g>
	<g>
		<path fill="#2A3CB7" d="M-68.441,112.963l-1.815-1.607c0.349-0.398,3.334-4.014,0.088-6.99c-1.551-1.422-2.27-2.918-2.133-4.445    c0.195-2.201,2.088-3.461,2.304-3.598l1.297,2.047l-0.648-1.023l0.656,1.02c-0.011,0.008-1.11,0.738-1.195,1.779    c-0.06,0.734,0.397,1.553,1.358,2.434C-64.478,106.293-66.7,110.994-68.441,112.963z"></path>
	</g>
	<path fill="#2A3CB7" d="M-44.804,113.039c0.013-0.184,0.094-0.309,0.124-0.338c-0.751,0.775-7.042,2.225-18.819,2.225   c-11.778,0-18.069-1.449-18.82-2.225c0.023,0.023,0.09,0.121,0.116,0.273l-2.403,0.307l3.73,41.459   c0.117,4.15,11.543,5.26,18.31,5.26c6.801,0,18.311-1.121,18.31-5.27l0.752-16.686l0.567-12.58l0.551-12.229   c0.003-0.047,0.005-0.094,0.005-0.143L-44.804,113.039z M-45.361,125.355l-0.566,12.58l-0.746,16.689   c-0.401,1.029-6.213,2.951-15.894,2.951c-9.68,0-15.493-1.922-15.887-2.9l-3.518-39.156c1.019,0.338,2.43,0.658,4.386,0.951   c3.798,0.566,8.8,0.879,14.086,0.879c5.376,0,10.439-0.32,14.258-0.904c1.835-0.281,3.261-0.594,4.326-0.963L-45.361,125.355z"></path>
</g>
<g>
	<g>
		<path fill="#2A3CB7" d="M82.519,160H13.482c-0.671,0-1.213-0.543-1.213-1.213v-41.02c0-0.669,0.542-1.211,1.213-1.211H51.51v2.423    H14.693v38.596h66.613v-38.596h-9.999v-2.423h11.211c0.67,0,1.212,0.542,1.212,1.211v41.02C83.73,159.457,83.188,160,82.519,160z"></path>
	</g>
	<g>
		<rect x="50.542" y="116.557" fill="#2A3CB7" width="22.846" height="2.423"></rect>
	</g>
	<g>
		<path fill="#2A3CB7" d="M48.01,142.519c-0.238,0-0.478-0.07-0.683-0.21l-34.52-23.539l1.365-2.003L48.01,139.84l33.825-23.073    l1.367,2.003l-34.51,23.539C48.487,142.448,48.249,142.519,48.01,142.519z"></path>
	</g>
	<g>
		
			<rect x="54.246" y="144.72" transform="matrix(0.6573 0.7536 -0.7536 0.6573 134.4126 -3.7277)" fill="#2A3CB7" width="34.119" height="2.423"></rect>
	</g>
	<g>
		
			<rect x="24.226" y="129.202" transform="matrix(0.7197 0.6943 -0.6943 0.7197 108.7811 23.3784)" fill="#2A3CB7" width="2.423" height="34.411"></rect>
	</g>
</g>
<g>
	<path fill="#2A3CB7" d="M189.216,74h-5.354c-0.682,0-1.235-0.555-1.235-1.236v-16.23c0-3.305,1.782-5.718,3.356-7.844   c1.644-2.223,3.344-4.52,3.344-7.958c0-1.458-0.193-2.431-0.417-3.559c-0.307-1.528-0.678-3.391-0.678-6.85   c0-2.114,1.718-3.833,3.831-3.833h1.042c3.003,0,4.4-1.339,4.4-4.214c0-0.892,0.004-1.828,0.01-2.619l0.005-0.679l-0.678-0.044   c-4.359-0.293-6.186-1.556-7.952-2.776c-1.841-1.272-3.576-2.472-8.867-2.472c-3.404,0-5.391,2.624-6.228,5.376   c-0.649-0.346-1.354-0.602-2.105-0.761c-0.086-0.018-0.171-0.038-0.253-0.058c1.089-3.51,3.846-7.027,8.586-7.027   c6.063,0,8.299,1.544,10.271,2.908c1.787,1.236,3.475,2.401,8.472,2.401c0.332,0,0.645,0.13,0.88,0.368   c0.232,0.234,0.358,0.548,0.354,0.884l0,0c0,0-0.022,2.38-0.022,4.502c0,4.249-2.505,6.685-6.872,6.685h-1.042   c-0.75,0-1.36,0.61-1.36,1.361c0,3.222,0.316,4.806,0.624,6.337c0.244,1.221,0.472,2.362,0.472,4.072   c0,4.248-2.033,6.999-3.829,9.426c-1.477,1.999-2.872,3.887-2.872,6.375v14.994h4.119V74z"></path>
	<path fill="#2A3CB7" d="M169.18,69.313c0.554-0.546,1.028-1.166,1.424-1.85c0.974-1.688,1.362-3.589,1.094-5.354   c-0.279-1.824-1.222-3.284-2.652-4.111c-0.786-0.453-1.66-0.683-2.601-0.683c-0.023,0-0.047,0.001-0.07,0.001   c0.276-0.781,0.656-1.541,1.139-2.396c0.985,0.13,1.913,0.445,2.767,0.936c1.959,1.132,3.3,3.08,3.775,5.489   c0.482,2.443,0.016,5.055-1.313,7.354c-0.328,0.573-0.716,1.126-1.15,1.646l-0.989,1.182L169.18,69.313z"></path>
	<path fill="#2A3CB7" d="M183.935,74h-22.72c-0.682,0-1.236-0.555-1.236-1.236V60.351c0-4.206,1.663-7.039,3.131-9.539   c1.311-2.231,2.544-4.333,2.544-7.238c0-1.21-0.193-2.402-0.4-3.664c-0.325-1.999-0.661-4.067-0.128-6.132   c0.593-2.28,2.279-3.237,3.635-4.005c1.702-0.964,2.932-1.661,2.932-4.535c0-0.221-0.088-0.961-1.222-1.199   c-2.782-0.59-4.046-1.756-5.161-2.785c-1.34-1.234-2.395-2.207-6.367-2.219l-0.044-0.006c-0.688-0.018-1.207-0.503-1.26-1.132   c-0.045-0.589-0.073-1.186-0.083-1.77l-0.032-1.861l-1.229,1.399c-1.417,1.611-3.106,4.789-3.106,10.774l-0.003,0.164   c0.015,2.184,0.044,6.209-4.723,9.413c-0.352,0.236-0.746,0.487-1.177,0.758l-0.061,0.037c-4.963,3.134-15.286,9.652-15.814,33.981   l-0.017,0.735h13.368c2.194,0,4.439-1.431,5.721-3.646c0.907-1.575,1.242-3.34,0.949-4.97c-0.281-1.557-1.109-2.803-2.331-3.507   c-0.703-0.406-1.484-0.611-2.325-0.611c-2.185,0-4.424,1.434-5.706,3.652c-0.22,0.381-0.63,0.619-1.072,0.619   c-0.215,0-0.428-0.058-0.615-0.166c-0.59-0.343-0.793-1.099-0.453-1.689c1.738-3.008,4.758-4.877,7.88-4.877   c1.271,0,2.456,0.313,3.527,0.931c1.862,1.075,3.115,2.925,3.528,5.211c0.396,2.208-0.042,4.566-1.242,6.643   c-0.243,0.42-0.529,0.841-0.848,1.248l-0.915,1.165h10.061c0.683,0,1.236,0.556,1.236,1.236c0,0.681-0.554,1.236-1.236,1.236   h-46.027c-4.128,0-6.275-2.25-6.893-3.58l2.241-1.042c0.14,0.259,1.274,2.149,4.651,2.149h14.036l0.014-0.705   c0.533-25.731,11.631-32.734,16.964-36.1l0.287-0.183c0.32-0.203,0.619-0.393,0.89-0.574c3.661-2.462,3.643-5.387,3.63-7.322   c0-0.002,0.004-0.333,0.007-0.388c0.083-13.161,7.641-14.939,7.964-15.009c0.085-0.019,0.173-0.028,0.262-0.028   c0.311,0,0.605,0.114,0.832,0.322c0.297,0.271,0.443,0.667,0.396,1.064c-0.02,0.161-0.171,1.534-0.147,3.326l0.008,0.652   l0.651,0.058c3.341,0.286,4.773,1.387,6.299,2.795c1.015,0.937,1.886,1.739,4.002,2.186c1.899,0.402,3.178,1.857,3.178,3.617   c0,4.312-2.418,5.683-4.183,6.683c-1.238,0.703-2.134,1.209-2.462,2.475c-0.402,1.559-0.122,3.287,0.175,5.118   c0.213,1.304,0.432,2.649,0.432,4.06c0,3.581-1.466,6.075-2.882,8.487c-1.437,2.446-2.793,4.755-2.793,8.29v11.176h21.484V74z"></path>
	<path fill="#2A3CB7" d="M176.716,29.734c0.326-0.776,0.56-1.621,0.694-2.526c1.563-0.37,3.075-2.453,3.075-5.417   c0-0.6-0.066-1.189-0.193-1.749c-0.15-0.664,0.27-1.327,0.934-1.478c0.09-0.02,0.183-0.03,0.274-0.03   c0.58,0,1.074,0.396,1.205,0.965c0.166,0.737,0.25,1.508,0.25,2.292c0,4.457-2.651,7.947-6.037,7.947   C176.85,29.738,176.783,29.737,176.716,29.734z"></path>
</g>
<g>
	<g>
		<g>
			<g>
				<path fill="#2A3CB7" d="M237.523,126.418c-4.695,0-8.516-3.819-8.516-8.515s3.82-8.515,8.516-8.515s8.514,3.819,8.514,8.515      S242.219,126.418,237.523,126.418z M237.523,111.813c-3.359,0-6.092,2.733-6.092,6.091c0,3.359,2.732,6.091,6.092,6.091      c3.357,0,6.09-2.731,6.09-6.091C243.613,114.546,240.881,111.813,237.523,111.813z"></path>
			</g>
			<g>
				<rect x="230.523" y="137.438" fill="#2A3CB7" width="2.426" height="22.559"></rect>
			</g>
			<g>
				<path fill="#2A3CB7" d="M231.598,151.215c-3.008,0-5.453-2.446-5.453-5.454v-12.957c0-3.008,2.445-5.455,5.453-5.455h5.926      v2.424h-5.926c-1.67,0-3.029,1.359-3.029,3.031v12.957c0,1.671,1.359,3.03,3.029,3.03V151.215z"></path>
			</g>
			<g>
				<path fill="#2A3CB7" d="M244.969,160h-2.424v-22.562c0-0.358,0.158-0.699,0.434-0.93s0.639-0.326,0.99-0.264l5.334,0.953      l7.342-5.192l-0.555-1.682l-5.488,3.008c-0.463,0.253-1.035,0.179-1.418-0.184c-3.252-3.085-3.941-3.376-5.734-3.376h-5.926      v-2.424h5.926c2.682,0,4.047,0.904,6.76,3.434l5.994-3.284c0.316-0.173,0.693-0.196,1.027-0.064s0.594,0.406,0.707,0.748      l1.291,3.917c0.166,0.506-0.016,1.061-0.451,1.368l-8.488,6.003c-0.266,0.188-0.594,0.261-0.912,0.204l-4.408-0.788V160z"></path>
			</g>
		</g>
		<g>
			<rect x="236.311" y="150.003" fill="#2A3CB7" width="2.424" height="9.997"></rect>
		</g>
	</g>
	<g>
		<g>
			<g>
				<path fill="#2A3CB7" d="M292.645,92.914h-55.121c-0.67,0-1.213,0.543-1.213,1.213v11.715h2.424V95.338h52.697v34.542h-28.688      v2.424h29.9c0.668,0,1.211-0.542,1.211-1.211V94.127C293.855,93.457,293.313,92.914,292.645,92.914z"></path>
			</g>
		</g>
	</g>
	<g>
		<path fill="#2A3CB7" d="M261.432,123.82h-2.424v-9.494h-5.051v9.494h-2.424v-10.706c0-0.67,0.543-1.212,1.213-1.212h7.475    c0.668,0,1.211,0.542,1.211,1.212V123.82z"></path>
	</g>
	<g>
		<path fill="#2A3CB7" d="M274.713,123.82h-2.424v-15.049h-5.051v15.049h-2.424V107.56c0-0.669,0.543-1.212,1.213-1.212h7.475    c0.668,0,1.211,0.543,1.211,1.212V123.82z"></path>
	</g>
	<g>
		<path fill="#2A3CB7" d="M287.994,123.82h-2.424v-23.525h-5.049v23.525h-2.426V99.082c0-0.669,0.543-1.211,1.213-1.211h7.475    c0.668,0,1.211,0.542,1.211,1.211V123.82z"></path>
	</g>
</g>
<g>
	<g>
		<path fill="#2A3CB7" d="M291.134,74h-18.998c-0.666,0-1.206-0.54-1.206-1.205V43.671c0-0.666,0.54-1.205,1.206-1.205h18.998    c0.666,0,1.205,0.539,1.205,1.205v29.124C292.339,73.46,291.8,74,291.134,74z M273.341,71.59h16.588V44.876h-16.588V71.59z"></path>
	</g>
	<g>
		<rect x="223.544" y="42.469" fill="#2A3CB7" width="72.912" height="2.41"></rect>
	</g>
	<g>
		<rect x="272.136" y="57.027" fill="#2A3CB7" width="18.998" height="2.41"></rect>
	</g>
	<g>
		<rect x="277.759" y="64.459" fill="#2A3CB7" width="7.75" height="2.41"></rect>
	</g>
	<g>
		<rect x="226.653" y="43.677" fill="#2A3CB7" width="2.41" height="30.129"></rect>
	</g>
	<g>
		<rect x="252.581" y="10" fill="#2A3CB7" width="4.241" height="2.41"></rect>
	</g>
	<g>
		<path fill="#2A3CB7" d="M272.206,37.279h-41.409c-0.665,0-1.205-0.539-1.205-1.205V11.205c0-0.666,0.54-1.205,1.205-1.205h18.57    v2.41h-17.365v22.459h38.999V12.41h-5.039V10h6.244c0.665,0,1.205,0.54,1.205,1.205v24.869    C273.411,36.74,272.871,37.279,272.206,37.279z"></path>
	</g>
	<g>
		<path fill="#2A3CB7" d="M256.822,44.876h-10.641c-0.509,0-0.964-0.319-1.134-0.8c-0.172-0.479-0.024-1.014,0.369-1.337    c0.768-0.63,1.141-3.924,1.008-6.605l2.407-0.12c0.058,1.138,0.125,4.191-0.604,6.452h6.549c-0.729-2.261-0.662-5.314-0.605-6.452    l2.408,0.12c-0.133,2.682,0.24,5.976,1.008,6.605c0.394,0.323,0.541,0.858,0.37,1.337    C257.786,44.557,257.331,44.876,256.822,44.876z"></path>
	</g>
	<g>
		
			<rect x="261.237" y="21.279" transform="matrix(0.7071 0.7071 -0.7071 0.7071 95.3817 -177.9056)" fill="#2A3CB7" width="2.41" height="9.808"></rect>
	</g>
	<g>
		
			<rect x="264.757" y="27.301" transform="matrix(0.7071 0.7071 -0.7071 0.7071 98.7553 -179.4243)" fill="#2A3CB7" width="2.41" height="4.39"></rect>
	</g>
	<g>
		<path fill="#2A3CB7" d="M285.482,44.876h-15.446c-0.666,0-1.206-0.54-1.206-1.205v-3.798h2.411v2.593h13.036V21.022h-8.396v-2.411    h9.602c0.666,0,1.206,0.54,1.206,1.206v23.854C286.688,44.336,286.148,44.876,285.482,44.876z"></path>
	</g>
	<g>
		<rect x="275.045" y="37.992" fill="#2A3CB7" width="5.429" height="2.411"></rect>
	</g>
</g>
</svg>